# Blender 3.1.0
# www.blender.org
o Giftbox01
v -0.979042 1.552730 1.020000
v -1.019042 1.552730 0.980000
v -0.998675 1.552730 1.014065
v -1.013106 1.552730 0.999633
v -1.019042 1.552730 -0.980000
v -0.979042 1.552730 -1.020000
v -1.013106 1.552730 -0.999633
v -0.998675 1.552730 -1.014065
v 0.980958 1.552730 -1.020000
v 1.020958 1.552730 -0.980000
v 1.000591 1.552730 -1.014065
v 1.015023 1.552730 -0.999633
v 1.020958 1.552730 0.980000
v 0.980958 1.552730 1.020000
v 1.015023 1.552730 0.999633
v 1.000591 1.552730 1.014065
v -1.080695 1.572723 1.061646
v -1.061221 1.552730 1.062180
v -1.060688 1.572723 1.081653
v -1.078287 1.562739 1.061911
v -1.078020 1.572723 1.071635
v -1.075756 1.563224 1.071403
v -1.061149 1.555401 1.072097
v -1.071139 1.555401 1.062107
v -1.070586 1.557916 1.071545
v -1.070677 1.572723 1.078979
v -1.060953 1.562739 1.079245
v -1.070444 1.563224 1.076715
v -1.046661 2.105330 1.067626
v -1.046141 2.125324 1.047099
v -1.066667 2.105330 1.047619
v -1.046400 2.115314 1.064692
v -1.056650 2.105330 1.064952
v -1.055917 2.114830 1.062187
v -1.056200 2.122653 1.047167
v -1.046209 2.122653 1.057158
v -1.055779 2.120138 1.056737
v -1.063993 2.105330 1.057608
v -1.063734 2.115314 1.047358
v -1.061229 2.114830 1.056875
v -1.046141 2.125324 -1.047099
v -1.046661 2.105330 -1.067626
v -1.066667 2.105330 -1.047619
v -1.046209 2.122653 -1.057158
v -1.056200 2.122653 -1.047167
v -1.055779 2.120138 -1.056737
v -1.056650 2.105330 -1.064952
v -1.046400 2.115314 -1.064692
v -1.055917 2.114830 -1.062187
v -1.063734 2.115314 -1.047358
v -1.063993 2.105330 -1.057608
v -1.061229 2.114830 -1.056875
v 1.048577 2.105330 -1.067626
v 1.048058 2.125324 -1.047099
v 1.068584 2.105330 -1.047619
v 1.048317 2.115314 -1.064692
v 1.058567 2.105330 -1.064952
v 1.057834 2.114830 -1.062187
v 1.058116 2.122653 -1.047167
v 1.048126 2.122653 -1.057158
v 1.057696 2.120138 -1.056737
v 1.065910 2.105330 -1.057608
v 1.065651 2.115314 -1.047358
v 1.063146 2.114830 -1.056875
v 1.048058 2.125324 1.047099
v 1.048577 2.105330 1.067626
v 1.068584 2.105330 1.047619
v 1.048126 2.122653 1.057158
v 1.058116 2.122653 1.047167
v 1.057696 2.120138 1.056737
v 1.058567 2.105330 1.064952
v 1.048317 2.115314 1.064692
v 1.057834 2.114830 1.062187
v 1.065651 2.115314 1.047358
v 1.065910 2.105330 1.057608
v 1.063146 2.114830 1.056875
v -1.060688 1.572723 -1.081653
v -1.061221 1.552730 -1.062180
v -1.080695 1.572723 -1.061646
v -1.060953 1.562739 -1.079245
v -1.070677 1.572723 -1.078979
v -1.070444 1.563224 -1.076715
v -1.071139 1.555401 -1.062107
v -1.061149 1.555401 -1.072097
v -1.070586 1.557916 -1.071545
v -1.078020 1.572723 -1.071635
v -1.078287 1.562739 -1.061911
v -1.075756 1.563224 -1.071403
v 1.062605 1.572723 -1.081653
v 1.082611 1.572723 -1.061646
v 1.063138 1.552730 -1.062180
v 1.072594 1.572723 -1.078979
v 1.062870 1.562739 -1.079245
v 1.072361 1.563224 -1.076715
v 1.080204 1.562739 -1.061911
v 1.079937 1.572723 -1.071635
v 1.077673 1.563224 -1.071403
v 1.063066 1.555401 -1.072097
v 1.073056 1.555401 -1.062107
v 1.072503 1.557916 -1.071545
v 1.062605 1.572723 1.081653
v 1.063138 1.552730 1.062180
v 1.082611 1.572723 1.061646
v 1.062870 1.562739 1.079245
v 1.072594 1.572723 1.078979
v 1.072361 1.563224 1.076715
v 1.073056 1.555401 1.062107
v 1.063066 1.555401 1.072097
v 1.072503 1.557916 1.071545
v 1.079937 1.572723 1.071635
v 1.080204 1.562739 1.061911
v 1.077673 1.563224 1.071403
v 0.000958 1.552730 1.020000
v 0.000958 1.552730 -1.020000
v 0.000958 2.105330 -1.067626
v 0.000958 2.125324 -1.047099
v 0.000958 2.115327 -1.064683
v 0.000958 2.122645 -1.057170
v 0.000958 2.105330 1.067626
v 0.000958 2.125324 1.047099
v 0.000958 2.115327 1.064683
v 0.000958 2.122645 1.057170
v 0.000958 1.552730 1.062180
v 0.000958 1.572723 1.081653
v 0.000958 1.555408 1.072109
v 0.000958 1.562726 1.079237
v 0.000958 1.552730 -1.062180
v 0.000958 1.572723 -1.081653
v 0.000958 1.555408 -1.072109
v 0.000958 1.562726 -1.079237
v -0.990582 1.551012 1.011668
v -0.997679 1.551012 1.009522
v -0.979042 1.551012 1.014319
v -1.008564 1.551012 0.998638
v -1.010710 1.551012 0.991541
v -1.013361 1.551012 0.980000
v -1.008564 1.551012 -0.998638
v -1.010710 1.551012 -0.991541
v -1.013361 1.551012 -0.980000
v -0.997680 1.551012 -1.009522
v -0.990582 1.551012 -1.011668
v -0.979042 1.551012 -1.014319
v 0.999596 1.551012 -1.009522
v 0.992499 1.551012 -1.011668
v 0.980958 1.551012 -1.014319
v 1.010481 1.551012 -0.998638
v 1.012626 1.551012 -0.991541
v 1.015278 1.551012 -0.980000
v 1.012626 1.551012 0.991541
v 1.010481 1.551012 0.998638
v 1.015278 1.551012 0.980000
v 0.999596 1.551012 1.009522
v 0.992499 1.551012 1.011668
v 0.980958 1.551012 1.014319
v 0.000958 1.551012 1.013591
v 0.000958 1.551012 -1.013591
v -0.979042 1.854807 -1.014319
v 0.000958 1.854807 -1.013591
v -1.008564 1.854807 -0.998638
v -1.010710 1.854807 -0.991541
v -0.997680 1.854807 -1.009522
v -0.990582 1.854807 -1.011668
v 1.012626 1.854807 0.991541
v 1.010481 1.854807 0.998638
v 1.015278 1.854807 0.980000
v 0.992499 1.854807 1.011668
v 0.980958 1.854807 1.014319
v 0.980958 1.854807 -1.014319
v -0.990582 1.854807 1.011668
v -0.997679 1.854807 1.009522
v -1.008564 1.854807 0.998638
v -1.010710 1.854807 0.991541
v -1.013361 1.854807 -0.980000
v 1.010481 1.854807 -0.998638
v 1.012626 1.854807 -0.991541
v 0.999596 1.854807 1.009522
v 0.000958 1.854807 1.013591
v -0.979042 1.854807 1.014319
v -1.013361 1.854807 0.980000
v 0.999596 1.854807 -1.009522
v 0.992499 1.854807 -1.011668
v 1.015278 1.854807 -0.980000
v -0.979042 2.073097 -1.014319
v 0.000958 2.073097 -1.013591
v -1.008564 2.073097 -0.998638
v -1.010710 2.073097 -0.991541
v -0.997680 2.073097 -1.009522
v -0.990582 2.073097 -1.011668
v 1.012626 2.073097 0.991541
v 1.010481 2.073097 0.998638
v 1.015278 2.073097 0.980000
v 0.992499 2.073097 1.011668
v 0.980958 2.073097 1.014319
v 0.980958 2.073097 -1.014319
v -0.990582 2.073097 1.011668
v -0.997679 2.073097 1.009522
v -1.008564 2.073097 0.998638
v -1.010710 2.073097 0.991541
v -1.013361 2.073097 -0.980000
v 1.010481 2.073097 -0.998638
v 1.012626 2.073097 -0.991541
v 0.999596 2.073097 1.009522
v 0.000958 2.073097 1.013591
v -0.979042 2.073097 1.014319
v -1.013361 2.073097 0.980000
v 0.999596 2.073097 -1.009522
v 0.992499 2.073097 -1.011668
v 1.015278 2.073097 -0.980000
vn -0.0000 0.0263 0.9997
vn -0.0000 -1.0000 -0.0000
vn -0.0000 1.0000 -0.0000
vn -0.0000 0.0263 -0.9997
vn -0.9997 0.0263 -0.0000
vn 0.9997 0.0263 -0.0000
vn -0.0402 -0.9550 0.2939
vn -0.1940 -0.9713 0.1377
vn 0.2214 -0.8854 -0.4088
vn 0.1480 -0.8068 -0.5720
vn 0.0499 -0.8344 -0.5489
vn -0.3063 -0.9374 0.1655
vn 0.4088 -0.8854 -0.2214
vn -0.2041 -0.9762 -0.0740
vn 0.5453 -0.8367 -0.0504
vn 0.5720 -0.8068 -0.1480
vn -0.3027 -0.9522 -0.0403
vn -0.1377 -0.9713 -0.1939
vn 0.4088 -0.8854 0.2214
vn 0.5720 -0.8068 0.1480
vn 0.5453 -0.8367 0.0504
vn -0.1655 -0.9374 -0.3063
vn 0.2214 -0.8854 0.4088
vn -0.0402 -0.9550 -0.2939
vn 0.0499 -0.8344 0.5489
vn 0.1480 -0.8068 0.5720
vn -0.1480 -0.8068 0.5720
vn -0.0499 -0.8344 0.5489
vn 0.0402 -0.9550 -0.2939
vn 0.1655 -0.9374 -0.3063
vn -0.2214 -0.8854 0.4088
vn 0.3063 -0.9374 -0.1655
vn -0.4088 -0.8854 0.2214
vn -0.5720 -0.8068 0.1480
vn 0.3027 -0.9522 -0.0403
vn -0.5453 -0.8367 0.0504
vn -0.5453 -0.8367 -0.0504
vn 0.3027 -0.9522 0.0403
vn 0.1377 -0.9713 0.1939
vn -0.4088 -0.8854 -0.2214
vn -0.5720 -0.8068 -0.1480
vn 0.1655 -0.9374 0.3063
vn -0.2214 -0.8854 -0.4088
vn -0.0709 -0.9776 0.1981
vn -0.0499 -0.8344 -0.5489
vn -0.1480 -0.8068 -0.5720
vn -0.8754 -0.4833 -0.0000
vn -0.7856 -0.4222 0.4523
vn -0.8655 0.0360 0.4996
vn -0.5062 -0.8624 -0.0000
vn -0.4546 -0.7660 0.4546
vn -0.0000 -0.8623 0.5063
vn -0.0000 -0.4834 0.8754
vn -0.4523 -0.4222 0.7856
vn -0.4996 0.0360 0.8655
vn -0.0000 0.5161 0.8565
vn -0.4403 0.4697 0.7652
vn -0.0000 0.8698 0.4934
vn -0.4383 0.7847 0.4383
vn -0.4933 0.8699 -0.0000
vn -0.8566 0.5160 -0.0000
vn -0.7652 0.4697 0.4403
vn -0.8655 0.0360 0.4995
vn -0.0000 0.8698 -0.4934
vn -0.4383 0.7847 -0.4383
vn -0.0000 0.5161 -0.8565
vn -0.4403 0.4697 -0.7652
vn -0.4996 0.0360 -0.8655
vn -0.8655 0.0360 -0.4995
vn -0.7652 0.4697 -0.4403
vn 0.4403 0.4697 -0.7652
vn 0.4996 0.0360 -0.8655
vn 0.4383 0.7847 -0.4383
vn 0.4933 0.8699 -0.0000
vn 0.8566 0.5160 -0.0000
vn 0.7652 0.4697 -0.4403
vn 0.8655 0.0360 -0.4995
vn 0.4383 0.7847 0.4383
vn 0.4403 0.4697 0.7652
vn 0.4996 0.0360 0.8655
vn 0.8655 0.0360 0.4995
vn 0.7652 0.4697 0.4403
vn -0.0000 -0.4834 -0.8754
vn -0.4523 -0.4222 -0.7856
vn -0.0000 -0.8623 -0.5063
vn -0.4546 -0.7660 -0.4546
vn -0.7856 -0.4222 -0.4523
vn -0.8655 0.0360 -0.4996
vn 0.4523 -0.4222 -0.7856
vn 0.8655 0.0360 -0.4996
vn 0.7856 -0.4222 -0.4523
vn 0.8754 -0.4833 -0.0000
vn 0.5062 -0.8624 -0.0000
vn 0.4546 -0.7660 -0.4546
vn 0.4523 -0.4222 0.7856
vn 0.4546 -0.7660 0.4546
vn 0.7856 -0.4222 0.4523
vn 0.8655 0.0360 0.4996
vn -0.0978 -0.9794 0.1766
vn -0.0000 -0.7977 -0.6030
vn -0.0000 -0.7977 0.6030
vn -0.0000 -0.9619 -0.2733
vn -0.2568 -0.0000 -0.9665
vn -0.5137 -0.0000 -0.8580
vn 0.9936 -0.0000 0.1127
vn 0.9665 -0.0000 0.2568
vn 0.8580 -0.0000 -0.5137
vn 0.5137 -0.0000 -0.8580
vn 0.2568 -0.0000 -0.9665
vn -0.8580 -0.0000 -0.5137
vn -0.9665 -0.0000 -0.2568
vn -0.5137 -0.0000 0.8580
vn -0.2568 -0.0000 0.9665
vn 0.2568 -0.0000 0.9665
vn 0.5137 -0.0000 0.8580
vn -0.9665 -0.0000 0.2568
vn -0.8580 -0.0000 0.5137
vn -0.9936 -0.0000 -0.1127
vn 0.8580 -0.0000 0.5137
vn -0.1123 -0.0000 0.9937
vn -0.9936 -0.0000 0.1127
vn 0.1123 -0.0000 -0.9937
vn -0.1123 -0.0000 -0.9937
vn -0.0000 -0.0000 -1.0000
vn 0.9936 -0.0000 -0.1127
vn 0.9665 -0.0000 -0.2568
vn 0.1123 -0.0000 0.9937
vn -0.0000 -0.0000 1.0000
vt 0.561813 0.997500
vt 0.561813 0.995225
vt 0.561813 0.004774
vt 0.561813 0.998295
vt 0.561813 -0.001667
vt 0.561813 0.999954
vt 0.561813 1.001758
vt 0.561813 0.001704
vt 0.561813 0.247500
vt 0.561813 0.245226
vt 0.561813 0.254775
vt 0.561813 0.248296
vt 0.561813 0.249954
vt 0.561813 0.251705
vt 0.561813 0.497500
vt 0.561813 0.495225
vt 0.561813 0.504774
vt 0.561813 0.498333
vt 0.561813 0.499954
vt 0.561813 0.501704
vt 0.561813 0.747500
vt 0.561813 0.745226
vt 0.561813 0.754775
vt 0.561813 0.748296
vt 0.561813 0.749954
vt 0.561813 0.751705
vt 0.564020 0.002319
vt 0.561813 1.000000
vt 0.561813 0.000000
vt 0.564019 0.997682
vt 0.562926 0.002316
vt 0.564027 0.001162
vt 0.562986 0.001217
vt 0.561813 0.998837
vt 0.561813 1.001171
vt 0.561813 0.001163
vt 0.561813 1.000000
vt 0.562416 0.001215
vt 0.564056 1.000000
vt 0.564056 0.000000
vt 0.562926 0.997685
vt 0.563017 1.000000
vt 0.563017 0.000000
vt 0.622794 0.997664
vt 0.872657 0.747657
vt 0.622794 0.002335
vt 0.623903 0.997662
vt 0.622831 1.000000
vt 0.622831 0.000000
vt 0.623888 1.000000
vt 0.623887 0.000000
vt 0.875000 0.747665
vt 0.625000 0.002335
vt 0.872665 0.750000
vt 0.625000 0.997665
vt 0.625030 1.000001
vt 0.875000 0.748786
vt 0.625000 0.001214
vt 0.622801 0.001168
vt 0.623903 0.002337
vt 0.623857 0.001225
vt 0.872657 0.502343
vt 0.622794 0.252336
vt 0.622794 0.247665
vt 0.872665 0.500000
vt 0.625000 0.252335
vt 0.875000 0.502335
vt 0.625000 0.247665
vt 0.875000 0.501214
vt 0.625030 0.250000
vt 0.625000 0.248786
vt 0.622802 0.251168
vt 0.623903 0.252338
vt 0.623857 0.251226
vt 0.623872 0.249396
vt 0.623903 0.247663
vt 0.622801 0.248832
vt 0.623857 0.248775
vt 0.622794 0.497664
vt 0.627343 0.502343
vt 0.622794 0.502335
vt 0.623903 0.497662
vt 0.622801 0.498832
vt 0.623857 0.498774
vt 0.626164 0.502335
vt 0.627335 0.500000
vt 0.625000 0.497665
vt 0.626214 0.500000
vt 0.625000 0.498786
vt 0.622801 0.501167
vt 0.623903 0.502337
vt 0.623857 0.501225
vt 0.623872 0.499396
vt 0.627343 0.747657
vt 0.622794 0.752336
vt 0.622794 0.747665
vt 0.627335 0.750000
vt 0.625000 0.752335
vt 0.626164 0.747665
vt 0.626214 0.750000
vt 0.625000 0.751214
vt 0.622802 0.751168
vt 0.623903 0.752338
vt 0.623857 0.751225
vt 0.623903 0.747663
vt 0.622801 0.748832
vt 0.623857 0.748775
vt 0.623872 0.750604
vt 0.564020 0.252318
vt 0.561813 0.250000
vt 0.564019 0.247681
vt 0.562926 0.252315
vt 0.564027 0.251162
vt 0.562986 0.251216
vt 0.561813 0.248837
vt 0.561813 0.251163
vt 0.561813 0.250000
vt 0.564027 0.248838
vt 0.562926 0.247684
vt 0.562986 0.248783
vt 0.564019 0.497682
vt 0.564020 0.502319
vt 0.561813 0.500000
vt 0.564027 0.498838
vt 0.562926 0.497685
vt 0.562986 0.498784
vt 0.562926 0.502316
vt 0.564027 0.501162
vt 0.562986 0.501217
vt 0.561813 0.498837
vt 0.561813 0.501163
vt 0.561813 0.500000
vt 0.564020 0.752318
vt 0.561813 0.750000
vt 0.564019 0.747681
vt 0.562926 0.752315
vt 0.564027 0.751162
vt 0.562986 0.751216
vt 0.561813 0.748837
vt 0.561813 0.751163
vt 0.561813 0.750000
vt 0.564027 0.748838
vt 0.562926 0.747684
vt 0.562986 0.748783
vt 0.561813 0.875000
vt 0.561813 0.375000
vt 0.622794 0.375000
vt 0.750000 0.502343
vt 0.623905 0.375000
vt 0.750000 0.500000
vt 0.625000 0.375000
vt 0.622794 0.875000
vt 0.750000 0.747657
vt 0.623905 0.875000
vt 0.750000 0.750000
vt 0.625000 0.875000
vt 0.561813 0.875000
vt 0.564019 0.875000
vt 0.561813 0.875000
vt 0.562924 0.875000
vt 0.561813 0.375000
vt 0.564019 0.375000
vt 0.561813 0.375000
vt 0.562924 0.375000
vt 0.561612 0.998941
vt 0.561599 0.999830
vt 0.561599 0.997500
vt 0.561813 0.995876
vt 0.561599 1.001190
vt 0.561813 0.001289
vt 0.561813 0.002403
vt 0.561813 0.004124
vt 0.561599 0.249830
vt 0.561612 0.248941
vt 0.561813 0.245876
vt 0.561599 0.247500
vt 0.561813 0.251289
vt 0.561599 0.251190
vt 0.561813 0.252404
vt 0.561813 0.254124
vt 0.561599 0.499830
vt 0.561612 0.498941
vt 0.561599 0.497500
vt 0.561813 0.495876
vt 0.561813 0.501289
vt 0.561599 0.501190
vt 0.561813 0.502403
vt 0.561813 0.504124
vt 0.561612 0.748941
vt 0.561599 0.749830
vt 0.561599 0.747500
vt 0.561813 0.745876
vt 0.561813 0.751289
vt 0.561599 0.751190
vt 0.561813 0.752404
vt 0.561813 0.754124
vt 0.561813 0.875000
vt 0.561813 0.375000
vt 0.561813 0.254124
vt 0.561813 0.375000
vt 0.561599 0.249830
vt 0.561612 0.248941
vt 0.561813 0.251289
vt 0.561599 0.251190
vt 0.561813 0.252404
vt 0.561612 0.748941
vt 0.561599 0.749830
vt 0.561599 0.747500
vt 0.561813 0.745876
vt 0.561813 0.752404
vt 0.561813 0.754124
vt 0.561813 0.495876
vt 0.561599 0.497500
vt 0.561612 0.998941
vt 0.561599 0.999830
vt 0.561599 1.001190
vt 0.561813 0.001289
vt 0.561813 0.002403
vt 0.561599 0.247500
vt 0.561813 0.245876
vt 0.561599 0.501190
vt 0.561813 0.501289
vt 0.561813 0.502403
vt 0.561813 0.751289
vt 0.561599 0.751190
vt 0.561813 0.875000
vt 0.561813 0.995876
vt 0.561599 0.997500
vt 0.561813 0.004124
vt 0.561599 0.499830
vt 0.561612 0.498941
vt 0.561813 0.504124
vt 0.307157 0.761256
vt 0.561813 0.254124
vt 0.500189 0.761069
vt 0.561813 0.375000
vt 0.301342 0.757217
vt 0.561599 0.249830
vt 0.300920 0.755389
vt 0.561612 0.248941
vt 0.303486 0.760021
vt 0.561813 0.251289
vt 0.561599 0.251190
vt 0.304884 0.760573
vt 0.561813 0.252404
vt 0.699458 0.244611
vt 0.561612 0.748941
vt 0.699035 0.242783
vt 0.561599 0.749830
vt 0.699980 0.247583
vt 0.561599 0.747500
vt 0.561813 0.745876
vt 0.695493 0.239427
vt 0.561813 0.752404
vt 0.693220 0.238744
vt 0.561813 0.754124
vt 0.693220 0.761256
vt 0.561813 0.495876
vt 0.561599 0.497500
vt 0.304884 0.239427
vt 0.561612 0.998941
vt 0.303486 0.239979
vt 0.561599 0.999830
vt 0.301342 0.242783
vt 0.561599 1.001190
vt 0.561813 0.001289
vt 0.300920 0.244611
vt 0.561813 0.002403
vt 0.561599 0.247500
vt 0.300397 0.752417
vt 0.561813 0.245876
vt 0.699035 0.757217
vt 0.561599 0.501190
vt 0.561813 0.501289
vt 0.699458 0.755389
vt 0.561813 0.502403
vt 0.696891 0.239979
vt 0.561813 0.751289
vt 0.561599 0.751190
vt 0.500189 0.238931
vt 0.561813 0.875000
vt 0.307157 0.238744
vt 0.561813 0.995876
vt 0.561599 0.997500
vt 0.300397 0.247583
vt 0.561813 0.004124
vt 0.696891 0.760021
vt 0.561599 0.499830
vt 0.695493 0.760573
vt 0.561612 0.498941
vt 0.699980 0.752417
vt 0.561813 0.504124
s 1
f 124/158/1 119/152/1 29/44/1 19/30/1
f 91/123/2 11/18/2 9/16/2 114/146/2 127/161/2
f 123/157/2 113/145/2 14/23/2 16/26/2 15/24/2 102/134/2
f 127/161/2 114/146/2 6/11/2 8/14/2 7/12/2 78/110/2
f 18/28/2 3/4/2 1/2/2 113/145/2 123/157/2
f 116/148/3 41/62/3 30/45/3 120/153/3
f 101/133/1 66/95/1 119/152/1 124/158/1
f 128/162/4 115/147/4 53/79/4 89/121/4
f 17/27/5 31/46/5 43/64/5 79/111/5
f 77/109/4 42/63/4 115/147/4 128/162/4
f 90/122/6 55/81/6 67/96/6 103/135/6
f 54/80/3 116/148/3 120/153/3 65/94/3
f 102/134/2 15/24/2 13/22/2 10/17/2 12/20/2 11/18/2 91/123/2
f 78/110/2 7/12/2 5/10/2 2/3/2 4/8/2 3/5/2 18/29/2
f 1/1/7 3/6/8 132/166/9 131/165/10 133/167/11
f 3/6/8 4/7/12 134/169/13 132/166/9
f 134/170/13 4/8/12 2/3/14 136/172/15 135/171/16
f 5/9/17 7/13/18 137/173/19 138/174/20 139/176/21
f 7/13/18 8/14/22 140/178/23 137/173/19
f 8/14/22 6/11/24 142/180/25 141/179/26 140/177/23
f 144/182/27 145/183/28 9/15/29 11/19/30 143/181/31
f 143/181/31 11/19/30 12/20/32 146/186/33
f 147/187/34 146/185/33 12/20/32 10/17/35 148/188/36
f 151/191/37 13/21/38 15/25/39 150/190/40 149/189/41
f 15/25/39 16/26/42 152/194/43 150/190/40
f 16/26/42 14/23/44 154/196/45 153/195/46 152/193/43
f 17/27/5 20/31/47 22/33/48 21/32/49
f 20/31/47 24/35/50 25/37/51 22/33/48
f 18/28/2 23/34/52 25/37/51 24/35/50
f 23/34/52 27/41/53 28/42/54 25/37/51
f 19/30/1 26/39/55 28/42/54 27/41/53
f 26/40/55 21/32/49 22/33/48 28/43/54
f 22/33/48 25/38/51 28/43/54
f 29/44/1 32/47/56 34/50/57 33/48/55
f 32/47/56 36/55/58 37/56/59 34/50/57
f 30/45/3 35/52/60 37/57/59 36/54/58
f 35/53/60 39/60/61 40/61/62 37/58/59
f 31/46/5 38/59/63 40/61/62 39/60/61
f 38/59/63 33/49/55 34/51/57 40/61/62
f 34/51/57 37/58/59 40/61/62
f 41/62/3 44/65/64 46/69/65 45/67/60
f 44/66/64 48/73/66 49/74/67 46/70/65
f 42/63/4 47/72/68 49/74/67 48/73/66
f 47/72/68 51/77/69 52/78/70 49/74/67
f 43/64/5 50/76/61 52/78/70 51/77/69
f 50/76/61 45/68/60 46/71/65 52/78/70
f 46/71/65 49/75/67 52/78/70
f 53/79/4 56/82/66 58/84/71 57/83/72
f 56/82/66 60/87/64 61/89/73 58/84/71
f 54/80/3 59/85/74 61/88/73 60/86/64
f 59/85/74 63/91/75 64/92/76 61/88/73
f 55/81/6 62/90/77 64/92/76 63/91/75
f 62/90/77 57/83/72 58/84/71 64/92/76
f 58/84/71 61/89/73 64/93/76
f 65/94/3 68/97/58 70/100/78 69/99/74
f 68/98/58 72/103/56 73/104/79 70/101/78
f 66/95/1 71/102/80 73/104/79 72/103/56
f 71/102/80 75/106/81 76/107/82 73/104/79
f 67/96/6 74/105/75 76/107/82 75/106/81
f 74/105/75 69/99/74 70/100/78 76/107/82
f 70/101/78 73/104/79 76/108/82
f 77/109/4 80/112/83 82/114/84 81/113/68
f 80/112/83 84/116/85 85/117/86 82/114/84
f 78/110/2 83/115/50 85/117/86 84/116/85
f 83/115/50 87/119/47 88/120/87 85/117/86
f 79/111/5 86/118/88 88/120/87 87/119/47
f 86/118/88 81/113/68 82/114/84 88/120/87
f 82/114/84 85/117/86 88/120/87
f 89/121/4 92/124/72 94/126/89 93/125/83
f 92/124/72 96/128/90 97/129/91 94/126/89
f 90/122/6 95/127/92 97/129/91 96/128/90
f 95/127/92 99/131/93 100/132/94 97/129/91
f 91/123/2 98/130/85 100/132/94 99/131/93
f 98/130/85 93/125/83 94/126/89 100/132/94
f 94/126/89 97/129/91 100/132/94
f 101/133/1 104/136/53 106/138/95 105/137/80
f 104/136/53 108/140/52 109/141/96 106/138/95
f 102/134/2 107/139/93 109/141/96 108/140/52
f 107/139/93 111/143/92 112/144/97 109/141/96
f 103/135/6 110/142/98 112/144/97 111/143/92
f 110/142/98 105/137/80 106/138/95 112/144/97
f 106/138/95 109/141/96 112/144/97
f 113/145/99 1/2/7 133/168/11 155/197/100
f 148/188/36 10/17/35 13/22/38 151/192/37
f 156/198/101 114/146/102 9/16/29 145/184/28
f 2/3/14 5/10/17 139/175/21 136/172/15
f 19/30/1 29/44/1 33/48/55 26/39/55
f 26/40/55 33/49/55 38/59/63 21/32/49
f 21/32/49 38/59/63 31/46/5 17/27/5
f 30/45/3 41/62/3 45/67/60 35/52/60
f 35/53/60 45/68/60 50/76/61 39/60/61
f 39/60/61 50/76/61 43/64/5 31/46/5
f 116/148/3 54/80/3 60/86/64 118/150/64
f 118/151/64 60/87/64 56/82/66 117/149/66
f 117/149/66 56/82/66 53/79/4 115/147/4
f 54/80/3 65/94/3 69/99/74 59/85/74
f 59/85/74 69/99/74 74/105/75 63/91/75
f 63/91/75 74/105/75 67/96/6 55/81/6
f 120/153/3 30/45/3 36/54/58 122/155/58
f 122/156/58 36/55/58 32/47/56 121/154/56
f 121/154/56 32/47/56 29/44/1 119/152/1
f 42/63/4 77/109/4 81/113/68 47/72/68
f 47/72/68 81/113/68 86/118/88 51/77/69
f 51/77/69 86/118/88 79/111/5 43/64/5
f 55/81/6 90/122/6 96/128/90 62/90/77
f 62/90/77 96/128/90 92/124/72 57/83/72
f 57/83/72 92/124/72 89/121/4 53/79/4
f 66/95/1 101/133/1 105/137/80 71/102/80
f 71/102/80 105/137/80 110/142/98 75/106/81
f 75/106/81 110/142/98 103/135/6 67/96/6
f 124/158/1 19/30/1 27/41/53 126/160/53
f 126/160/53 27/41/53 23/34/52 125/159/52
f 125/159/52 23/34/52 18/28/2 123/157/2
f 90/122/6 103/135/6 111/143/92 95/127/92
f 95/127/92 111/143/92 107/139/93 99/131/93
f 99/131/93 107/139/93 102/134/2 91/123/2
f 128/162/4 89/121/4 93/125/83 130/164/83
f 130/164/83 93/125/83 98/130/85 129/163/85
f 129/163/85 98/130/85 91/123/2 127/161/2
f 17/27/5 79/111/5 87/119/47 20/31/47
f 20/31/47 87/119/47 83/115/50 24/36/50
f 24/36/50 83/115/50 78/110/2 18/29/2
f 14/23/44 113/145/99 155/197/100 154/196/45
f 142/180/25 6/11/24 114/146/102 156/198/101
f 41/62/3 116/148/3 118/150/64 44/65/64
f 44/66/64 118/151/64 117/149/66 48/73/66
f 48/73/66 117/149/66 115/147/4 42/63/4
f 65/94/3 120/153/3 122/155/58 68/97/58
f 68/98/58 122/156/58 121/154/56 72/103/56
f 72/103/56 121/154/56 119/152/1 66/95/1
f 101/133/1 124/158/1 126/160/53 104/136/53
f 104/136/53 126/160/53 125/159/52 108/140/52
f 108/140/52 125/159/52 123/157/2 102/134/2
f 77/109/4 128/162/4 130/164/83 80/112/83
f 80/112/83 130/164/83 129/163/85 84/116/85
f 84/116/85 129/163/85 127/161/2 78/110/2
f 152/193/43 153/195/46 166/210/103 176/224/104
f 173/219/105 160/202/106 186/240/106 199/269/105
f 132/166/9 134/169/13 171/216/107 170/215/108
f 131/165/10 132/166/9 170/215/108 169/214/109
f 149/189/41 150/190/40 164/207/110 163/206/111
f 144/182/27 143/181/31 180/230/112 181/231/113
f 140/177/23 141/179/26 162/205/114 161/203/115
f 146/185/33 147/187/34 175/223/116 174/222/117
f 151/191/37 149/189/41 163/206/111 165/208/118
f 138/174/20 137/173/19 159/201/119 160/202/106
f 143/181/31 146/186/33 174/221/117 180/230/112
f 145/183/28 144/182/27 181/231/113 168/213/120
f 147/187/34 148/188/36 182/232/121 175/223/116
f 133/167/11 131/165/10 169/214/109 178/228/122
f 153/195/46 154/196/45 167/211/123 166/210/103
f 150/190/40 152/194/43 176/225/104 164/207/110
f 137/173/19 140/178/23 161/204/115 159/201/119
f 155/197/100 133/168/11 178/227/122 177/226/124
f 135/171/16 136/172/15 179/229/125 172/218/126
f 134/170/13 135/171/16 172/218/126 171/217/107
f 141/179/26 142/180/25 157/199/127 162/205/114
f 148/188/36 151/192/37 165/209/118 182/232/121
f 154/196/45 155/197/100 177/226/124 167/211/123
f 156/198/101 145/184/28 168/212/120 158/200/128
f 142/180/25 156/198/101 158/200/128 157/199/127
f 136/172/15 139/175/21 173/220/105 179/229/125
f 139/176/21 138/174/20 160/202/106 173/219/105
s 0
f 194/257/2 207/289/2 206/287/2 200/272/2 201/275/2 208/291/2 191/250/2 189/246/2 190/248/2 202/277/2 192/253/2 193/255/2 203/280/2 204/282/2 195/260/2 196/262/2 197/264/2 198/267/2 205/285/2 199/270/2 186/239/2 185/237/2 187/241/2 188/244/2 183/233/2 184/235/2
s 1
f 176/224/104 166/210/103 192/254/103 202/278/104
f 162/205/114 157/199/127 183/234/127 188/245/114
f 180/230/112 174/221/117 200/273/117 206/288/112
f 174/222/117 175/223/116 201/276/116 200/274/117
f 163/206/111 164/207/110 190/249/110 189/247/111
f 175/223/116 182/232/121 208/292/121 201/276/116
f 164/207/110 176/225/104 202/279/104 190/249/110
f 165/208/118 163/206/111 189/247/111 191/251/118
f 177/226/124 178/227/122 204/283/122 203/281/124
f 167/211/123 177/226/124 203/281/124 193/256/123
f 166/210/103 167/211/123 193/256/123 192/254/103
f 179/229/125 173/220/105 199/271/105 205/286/125
f 170/215/108 171/216/107 197/265/107 196/263/108
f 158/200/128 168/212/120 194/258/120 184/236/128
f 161/203/115 162/205/114 188/245/114 187/242/115
f 157/199/127 158/200/128 184/236/128 183/234/127
f 178/228/122 169/214/109 195/261/109 204/284/122
f 169/214/109 170/215/108 196/263/108 195/261/109
f 168/213/120 181/231/113 207/290/113 194/259/120
f 160/202/106 159/201/119 185/238/119 186/240/106
f 172/218/126 179/229/125 205/286/125 198/268/126
f 171/217/107 172/218/126 198/268/126 197/266/107
f 182/232/121 165/209/118 191/252/118 208/292/121
f 159/201/119 161/204/115 187/243/115 185/238/119
f 181/231/113 180/230/112 206/288/112 207/290/113
